<svg xmlns="http://www.w3.org/2000/svg" width="4096" height="4096" viewBox="41 17 1170 1170" xmlns:c2pa="http://c2pa.org/manifest"><metadata><c2pa:manifest>AAAWgmp1bWIAAAAeanVtZGMycGEAEQAQgAAAqgA4m3EDYzJwYQAAABZcanVtYgAAAEdqdW1kYzJtYQARABCAAACqADibcQN1cm46YzJwYTplZWVhMWU1MS1hMmYwLTRhMjgtOTk2MS03NDlhMzhmNDFmOWUAAAADl2p1bWIAAAApanVtZGMyYXMAEQAQgAAAqgA4m3EDYzJwYS5hc3NlcnRpb25zAAAAALxqdW1iAAAARGp1bWRjYm9yABEAEIAAAKoAOJtxE2MycGEuaW5ncmVkaWVudC52MwAAAAAYYzJzaPoJGQBRf9zUQf/QZfPe5a8AAABwY2JvcqNpZGM6Zm9ybWF0bWltYWdlL3N2Zyt4bWxqaW5zdGFuY2VJRHgseG1wOmlpZDo4ZDU5ZmFmNi1hYjM0LTQ3MzEtODg1MC03NjliYWI2NmZjOTZscmVsYXRpb25zaGlwaHBhcmVudE9mAAAB4mp1bWIAAABBanVtZGNib3IAEQAQgAAAqgA4m3ETYzJwYS5hY3Rpb25zLnYyAAAAABhjMnNoaaF+GhOBU7GN4/L3tn8UvgAAAZljYm9yomdhY3Rpb25zgqJmYWN0aW9ua2MycGEub3BlbmVkanBhcmFtZXRlcnOha2luZ3JlZGllbnRzgaJjdXJseC1zZWxmI2p1bWJmPWMycGEuYXNzZXJ0aW9ucy9jMnBhLmluZ3JlZGllbnQudjNkaGFzaFggRiCocTH+bDWpxIc2yL402Ydw+BUJoZvwmvZGbk3Lf6KkZmFjdGlvbngdY29tLmFudGhyb3BpYy5jbGF1ZGUucHJvdmlkZWRqcGFyYW1ldGVyc6F4H2NvbS5hbnRocm9waWMub3JpZ2luLWNvbmZpZGVuY2VndW5rbm93bmtkZXNjcmlwdGlvbnhmQ2xhdWRlIHByb3ZpZGVkIHRoaXMgZmlsZSBhdCB0aGUgcmVxdWVzdCBvZiBhIHVzZXIgYW5kIG1heSBoYXZlIGNyZWF0ZWQgb3IgbW9kaWZpZWQgdGhlIGZpbGUgY29udGVudHMubXNvZnR3YXJlQWdlbnShZG5hbWVmQ2xhdWRlcmFsbEFjdGlvbnNJbmNsdWRlZPUAAADIanVtYgAAAEBqdW1kY2JvcgARABCAAACqADibcRNjMnBhLmhhc2guZGF0YQAAAAAYYzJzaPZEOpu3tYP7XWv0a4ym9tIAAACAY2JvcqVjYWxnZnNoYTI1NmNwYWRNAAAAAAAAAAAAAAAAAGRoYXNoWCCE92tKSg5/w9QJbnMRgUn84K63bs4ATNEAKDGtZLCbZWRuYW1lbmp1bWJmIG1hbmlmZXN0amV4Y2x1c2lvbnOBomVzdGFydBicZmxlbmd0aBkeBAAAAj5qdW1iAAAAJ2p1bWRjMmNsABEAEIAAAKoAOJtxA2MycGEuY2xhaW0udjIAAAACD2Nib3KlY2FsZ2ZzaGEyNTZpc2lnbmF0dXJleE1zZWxmI2p1bWJmPS9jMnBhL3VybjpjMnBhOmVlZWExZTUxLWEyZjAtNGEyOC05OTYxLTc0OWEzOGY0MWY5ZS9jMnBhLnNpZ25hdHVyZWppbnN0YW5jZUlEeCx4bXA6aWlkOmEyYmEwMjhlLThmMjYtNGEyNC1iN2ZkLTQwNzdkZDUzYTJkZnJjcmVhdGVkX2Fzc2VydGlvbnODomN1cmx4LXNlbGYjanVtYmY9YzJwYS5hc3NlcnRpb25zL2MycGEuaW5ncmVkaWVudC52M2RoYXNoWCBGIKhxMf5sNanEhzbIvjTZh3D4FQmhm/Ca9kZuTct/oqJjdXJseCpzZWxmI2p1bWJmPWMycGEuYXNzZXJ0aW9ucy9jMnBhLmFjdGlvbnMudjJkaGFzaFgg1Kl98SpHNgHp/hkv82G3k7i734iYzovMssm6qj1Qk9uiY3VybHgpc2VsZiNqdW1iZj1jMnBhLmFzc2VydGlvbnMvYzJwYS5oYXNoLmRhdGFkaGFzaFggFcXaUZxpq9KGlcmbQie8xlbVSiqEa5BFENvtgx8vgTV0Y2xhaW1fZ2VuZXJhdG9yX2luZm+jZG5hbWVvQW50aHJvcGljIEZpbGVzZ3ZlcnNpb25lMS4wLjBrc3BlY1ZlcnNpb25lMi40LjAAABA4anVtYgAAAChqdW1kYzJjcwARABCAAACqADibcQNjMnBhLnNpZ25hdHVyZQAAABAIY2JvctKEWQISogEmGCFZAgowggIGMIIBjaADAgECAhRA5aAK7sI50L64g/oGQgU9Z1UTADAKBggqhkjOPQQDAzBJMRcwFQYDVQQKEw5BbnRocm9waWMsIFBCQzEuMCwGA1UEAxMlQW50aHJvcGljIENvbnRlbnQgQ3JlZGVudGlhbHMgUm9vdCBDQTAeFw0yNjA4MDcxODQzNTZaFw0yODA4MDYxOTQzNTZaMEQxFzAVBgNVBAoTDkFudGhyb3BpYywgUEJDMSkwJwYDVQQDEyBBbnRocm9waWMgQ2xhdWRlIENvbnRlbnQgU2lnbmluZzBZMBMGByqGSM49AgEGCCqGSM49AwEHA0IABJh6CmvLUBgFFNU0vUKlOVtE6djd17L5SuwX0LemFisBM3dkd/3cyjxFA3Qo5S46fX0/ihY0VZ7mfb9KF703t5OjWDBWMA4GA1UdDwEB/wQEAwIHgDAVBgNVHSUEDjAMBgorBgEEAYPoXgIBMAwGA1UdEwEB/wQCMAAwHwYDVR0jBBgwFoAUzlHiBIFOZFsj+OPEz5o+nMHXXMIwCgYIKoZIzj0EAwMDZwAwZAIwMXMdFJ4BetLLVY7ORuE9noqbbAZOZn/aArXyTwFAZfKrPzxF2vPoJNf1+UCdg1XGAjBwX1zd9WGqYkqmL5SFqw1QySjr1zJfpJM9+1rdDwSPLMOPOjKuiXjoU/pUUeG9RwmhY3BhZFkNngAAAAAAAAAAAAAAAAAAAAAAAAAAAAAAAAAAAAAAAAAAAAAAAAAAAAAAAAAAAAAAAAAAAAAAAAAAAAAAAAAAAAAAAAAAAAAAAAAAAAAAAAAAAAAAAAAAAAAAAAAAAAAAAAAAAAAAAAAAAAAAAAAAAAAAAAAAAAAAAAAAAAAAAAAAAAAAAAAAAAAAAAAAAAAAAAAAAAAAAAAAAAAAAAAAAAAAAAAAAAAAAAAAAAAAAAAAAAAAAAAAAAAAAAAAAAAAAAAAAAAAAAAAAAAAAAAAAAAAAAAAAAAAAAAAAAAAAAAAAAAAAAAAAAAAAAAAAAAAAAAAAAAAAAAAAAAAAAAAAAAAAAAAAAAAAAAAAAAAAAAAAAAAAAAAAAAAAAAAAAAAAAAAAAAAAAAAAAAAAAAAAAAAAAAAAAAAAAAAAAAAAAAAAAAAAAAAAAAAAAAAAAAAAAAAAAAAAAAAAAAAAAAAAAAAAAAAAAAAAAAAAAAAAAAAAAAAAAAAAAAAAAAAAAAAAAAAAAAAAAAAAAAAAAAAAAAAAAAAAAAAAAAAAAAAAAAAAAAAAAAAAAAAAAAAAAAAAAAAAAAAAAAAAAAAAAAAAAAAAAAAAAAAAAAAAAAAAAAAAAAAAAAAAAAAAAAAAAAAAAAAAAAAAAAAAAAAAAAAAAAAAAAAAAAAAAAAAAAAAAAAAAAAAAAAAAAAAAAAAAAAAAAAAAAAAAAAAAAAAAAAAAAAAAAAAAAAAAAAAAAAAAAAAAAAAAAAAAAAAAAAAAAAAAAAAAAAAAAAAAAAAAAAAAAAAAAAAAAAAAAAAAAAAAAAAAAAAAAAAAAAAAAAAAAAAAAAAAAAAAAAAAAAAAAAAAAAAAAAAAAAAAAAAAAAAAAAAAAAAAAAAAAAAAAAAAAAAAAAAAAAAAAAAAAAAAAAAAAAAAAAAAAAAAAAAAAAAAAAAAAAAAAAAAAAAAAAAAAAAAAAAAAAAAAAAAAAAAAAAAAAAAAAAAAAAAAAAAAAAAAAAAAAAAAAAAAAAAAAAAAAAAAAAAAAAAAAAAAAAAAAAAAAAAAAAAAAAAAAAAAAAAAAAAAAAAAAAAAAAAAAAAAAAAAAAAAAAAAAAAAAAAAAAAAAAAAAAAAAAAAAAAAAAAAAAAAAAAAAAAAAAAAAAAAAAAAAAAAAAAAAAAAAAAAAAAAAAAAAAAAAAAAAAAAAAAAAAAAAAAAAAAAAAAAAAAAAAAAAAAAAAAAAAAAAAAAAAAAAAAAAAAAAAAAAAAAAAAAAAAAAAAAAAAAAAAAAAAAAAAAAAAAAAAAAAAAAAAAAAAAAAAAAAAAAAAAAAAAAAAAAAAAAAAAAAAAAAAAAAAAAAAAAAAAAAAAAAAAAAAAAAAAAAAAAAAAAAAAAAAAAAAAAAAAAAAAAAAAAAAAAAAAAAAAAAAAAAAAAAAAAAAAAAAAAAAAAAAAAAAAAAAAAAAAAAAAAAAAAAAAAAAAAAAAAAAAAAAAAAAAAAAAAAAAAAAAAAAAAAAAAAAAAAAAAAAAAAAAAAAAAAAAAAAAAAAAAAAAAAAAAAAAAAAAAAAAAAAAAAAAAAAAAAAAAAAAAAAAAAAAAAAAAAAAAAAAAAAAAAAAAAAAAAAAAAAAAAAAAAAAAAAAAAAAAAAAAAAAAAAAAAAAAAAAAAAAAAAAAAAAAAAAAAAAAAAAAAAAAAAAAAAAAAAAAAAAAAAAAAAAAAAAAAAAAAAAAAAAAAAAAAAAAAAAAAAAAAAAAAAAAAAAAAAAAAAAAAAAAAAAAAAAAAAAAAAAAAAAAAAAAAAAAAAAAAAAAAAAAAAAAAAAAAAAAAAAAAAAAAAAAAAAAAAAAAAAAAAAAAAAAAAAAAAAAAAAAAAAAAAAAAAAAAAAAAAAAAAAAAAAAAAAAAAAAAAAAAAAAAAAAAAAAAAAAAAAAAAAAAAAAAAAAAAAAAAAAAAAAAAAAAAAAAAAAAAAAAAAAAAAAAAAAAAAAAAAAAAAAAAAAAAAAAAAAAAAAAAAAAAAAAAAAAAAAAAAAAAAAAAAAAAAAAAAAAAAAAAAAAAAAAAAAAAAAAAAAAAAAAAAAAAAAAAAAAAAAAAAAAAAAAAAAAAAAAAAAAAAAAAAAAAAAAAAAAAAAAAAAAAAAAAAAAAAAAAAAAAAAAAAAAAAAAAAAAAAAAAAAAAAAAAAAAAAAAAAAAAAAAAAAAAAAAAAAAAAAAAAAAAAAAAAAAAAAAAAAAAAAAAAAAAAAAAAAAAAAAAAAAAAAAAAAAAAAAAAAAAAAAAAAAAAAAAAAAAAAAAAAAAAAAAAAAAAAAAAAAAAAAAAAAAAAAAAAAAAAAAAAAAAAAAAAAAAAAAAAAAAAAAAAAAAAAAAAAAAAAAAAAAAAAAAAAAAAAAAAAAAAAAAAAAAAAAAAAAAAAAAAAAAAAAAAAAAAAAAAAAAAAAAAAAAAAAAAAAAAAAAAAAAAAAAAAAAAAAAAAAAAAAAAAAAAAAAAAAAAAAAAAAAAAAAAAAAAAAAAAAAAAAAAAAAAAAAAAAAAAAAAAAAAAAAAAAAAAAAAAAAAAAAAAAAAAAAAAAAAAAAAAAAAAAAAAAAAAAAAAAAAAAAAAAAAAAAAAAAAAAAAAAAAAAAAAAAAAAAAAAAAAAAAAAAAAAAAAAAAAAAAAAAAAAAAAAAAAAAAAAAAAAAAAAAAAAAAAAAAAAAAAAAAAAAAAAAAAAAAAAAAAAAAAAAAAAAAAAAAAAAAAAAAAAAAAAAAAAAAAAAAAAAAAAAAAAAAAAAAAAAAAAAAAAAAAAAAAAAAAAAAAAAAAAAAAAAAAAAAAAAAAAAAAAAAAAAAAAAAAAAAAAAAAAAAAAAAAAAAAAAAAAAAAAAAAAAAAAAAAAAAAAAAAAAAAAAAAAAAAAAAAAAAAAAAAAAAAAAAAAAAAAAAAAAAAAAAAAAAAAAAAAAAAAAAAAAAAAAAAAAAAAAAAAAAAAAAAAAAAAAAAAAAAAAAAAAAAAAAAAAAAAAAAAAAAAAAAAAAAAAAAAAAAAAAAAAAAAAAAAAAAAAAAAAAAAAAAAAAAAAAAAAAAAAAAAAAAAAAAAAAAAAAAAAAAAAAAAAAAAAAAAAAAAAAAAAAAAAAAAAAAAAAAAAAAAAAAAAAAAAAAAAAAAAAAAAAAAAAAAAAAAAAAAAAAAAAAAAAAAAAAAAAAAAAAAAAAAAAAAAAAAAAAAAAAAAAAAAAAAAAAAAAAAAAAAAAAAAAAAAAAAAAAAAAAAAAAAAAAAAAAAAAAAAAAAAAAAAAAAAAAAAAAAAAAAAAAAAAAAAAAAAAAAAAAAAAAAAAAAAAAAAAAAAAAAAAAAAAAAAAAAAAAAAAAAAAAAAAAAAAAAAAAAAAAAAAAAAAAAAAAAAAAAAAAAAAAAAAAAAAAAAAAAAAAAAAAAAAAAAAAAAAAAAAAAAAAAAAAAAAAAAAAAAAAAAAAAAAAAAAAAAAAAAAAAAAAAAAAAAAAAAAAAAAAAAAAAAAAAAAAAAAAAAAAAAAAAAAAAAAAAAAAAAAAAAAAAAAAAAAAAAAAAAAAAAAAAAAAAAAAAAAAAAAAAAAAAAAAAAAAAAAAAAAAAAAAAAAAAAAAAAAAAAAAAAAAAAAAAAAAAAAAAAAAAAAAAAAAAAAAAAAAAAAAAAAAAAAAAAAAAAAAAAAAAAAAAAAAAAAAAAAAAAAAAAAAAAAAAAAAAAAAAAAAAAAAAAAAAAAAAAAAAAAAAAAAAAAAAAAAAAAAAAAAAAAAAAAAAAAAAAAAAAAAAAAAAAAAAAAAAAAAAAAAAAAAAAAAAAAAAAAAAAAAAAAAAAAAAAAAAAAAAAAAAAAAAAAAAAAAAAAAAAAAAAAAAAAAAAAAAAAAAAAAAAAAAAAAAAAAAAAAAAAAAAAAAAAAAAAAAAAAAAAAAAAAAAAAAAAAAAAAAAAAAAAAAAAAAAAAAAAAAAAAAAAAAAAAAAAAAAAAAAAAAAAAAAAAAAAAAAAAAAAAAAAAAAAAAAAAAAAAAAAAAAAAAAAAAAAAAAAAAAAAAAAAAAAAAAAAAAAAAAAAAAAAAAAAAAAAAAAAAAAAAAAAAAAAAAAAAAAAAAAAAAAAAAAAAAAAAAAAAAAAAAAAAAAAAAAAAAAAAAAAAAAAAAAAAAAAAAAAAAAAAAAAAAAAAAAAAAAAAAAAAAAAAAAAAAAAAAAAAAAAAAAAAAAAAAAAAAAAAAAAAAAAAAAAAAAAAAAAAAAAAAAAAAAAAAAAAAAAAAAAAAAAAAAAAAAAAAAAAAAAAAAAAAAAAAAAAAAAAAAAAAAAAAAAAAAAAAAAAAAAAAAAAAAAAAAAAAAAAAAAAAAAAAAAAAAAAAAAAAAAAAAAAAAAAAAAAAAAAAAAAAAAAAAAAAAAAAAAAAAAAAAAAAAAAAAAAAAAAAAAAAAAAAAAAAAAAAAAAAAAAAAAAAAAAAAAAAAAAAAAAAAAAAAAAAAAAAAAAAAAAAAAAAAAAAAAAAAAAAAAAAAAAAAAAAAAAAAAAAAAAAAAAAAAAAAAAAAAAAAAAAAAAAAAAAAAAAAAAAAAAAAAAAAAAAAAAAAAAAAAAAAAAAAAAAAAAAAAAAAAAAAAAAAAAAAAAAAAAAAAAAAAAAAAAAAAAAAAAAAAAAAAAAAAAAAAAAAAAAAAAAAAAAAAAAAAAAAAAAAAPZYQDIKCSGCqe+xZiRSdzAWW1Bklz4U5PtnjvBOUMewsTsz8pAu2C6VLzsBf20lVyjNqvb2g7e41hQr4It+iL1/eGg=</c2pa:manifest></metadata><title>Waymate logo mark</title><defs><linearGradient id="g_dark_tri" gradientUnits="userSpaceOnUse" x1="825" y1="466" x2="648" y2="365"><stop offset="0" stop-color="rgb(141,45,12)"/><stop offset="1" stop-color="rgb(226,78,16)"/></linearGradient><linearGradient id="g_back_left" gradientUnits="userSpaceOnUse" x1="499" y1="631" x2="645" y2="481"><stop offset="0" stop-color="rgb(240,95,28)"/><stop offset="1" stop-color="rgb(251,109,30)"/></linearGradient><linearGradient id="g_back_top" gradientUnits="userSpaceOnUse" x1="646" y1="332" x2="659" y2="346"><stop offset="0" stop-color="rgb(252,135,39)"/><stop offset="1" stop-color="rgb(253,139,41)"/></linearGradient><linearGradient id="g_flap" gradientUnits="userSpaceOnUse" x1="871" y1="384" x2="804" y2="367"><stop offset="0" stop-color="rgb(252,131,35)"/><stop offset="1" stop-color="rgb(253,155,49)"/></linearGradient><linearGradient id="g_band" gradientUnits="userSpaceOnUse" x1="511" y1="779" x2="459" y2="716"><stop offset="0" stop-color="rgb(152,49,12)"/><stop offset="1" stop-color="rgb(199,66,14)"/></linearGradient><linearGradient id="g_left_inner" gradientUnits="userSpaceOnUse" x1="431" y1="654" x2="338" y2="691"><stop offset="0" stop-color="rgb(253,134,37)"/><stop offset="1" stop-color="rgb(252,137,39)"/></linearGradient><linearGradient id="g_left_outer" gradientUnits="userSpaceOnUse" x1="335" y1="711" x2="253" y2="741"><stop offset="0" stop-color="rgb(196,66,15)"/><stop offset="1" stop-color="rgb(246,99,29)"/></linearGradient><linearGradient id="g_cap" gradientUnits="userSpaceOnUse" x1="282" y1="526" x2="291" y2="585"><stop offset="0" stop-color="rgb(253,144,42)"/><stop offset="1" stop-color="rgb(253,152,48)"/></linearGradient><linearGradient id="g_slab_left" gradientUnits="userSpaceOnUse" x1="566" y1="655" x2="673" y2="864"><stop offset="0" stop-color="rgb(252,120,32)"/><stop offset="1" stop-color="rgb(252,128,35)"/></linearGradient><linearGradient id="g_slab_right" gradientUnits="userSpaceOnUse" x1="773" y1="757" x2="649" y2="694"><stop offset="0" stop-color="rgb(216,89,23)"/><stop offset="1" stop-color="rgb(221,92,24)"/></linearGradient><linearGradient id="g_slab_top" gradientUnits="userSpaceOnUse" x1="591" y1="545" x2="712" y2="607"><stop offset="0" stop-color="rgb(253,151,48)"/><stop offset="1" stop-color="rgb(253,153,50)"/></linearGradient><linearGradient id="g_blk_left" gradientUnits="userSpaceOnUse" x1="814" y1="667" x2="968" y2="472"><stop offset="0" stop-color="rgb(236,88,26)"/><stop offset="1" stop-color="rgb(254,116,32)"/></linearGradient><linearGradient id="g_blk_right" gradientUnits="userSpaceOnUse" x1="1048" y1="677" x2="940" y2="591"><stop offset="0" stop-color="rgb(243,103,28)"/><stop offset="1" stop-color="rgb(245,105,29)"/></linearGradient><clipPath id="clip"><path d="M191.3,581.2 Q187.0,570.0 197.2,563.6 L263.1,522.4 Q275.0,515.0 288.3,519.3 L366.6,544.3 Q378.0,548.0 384.5,558.1 L466.9,686.3 Q468.0,688.0 468.5,686.1 L525.2,449.5 Q527.0,442.0 530.8,435.3 L531.2,434.7 Q535.0,428.0 541.7,424.2 L780.0,289.5 Q788.0,285.0 797.1,284.0 L798.5,283.9 Q807.0,283.0 815.2,285.4 L815.8,285.6 Q824.0,288.0 826.9,296.0 L880.0,441.2 Q881.0,444.0 883.9,444.7 L1046.5,484.2 Q1062.0,488.0 1062.2,504.0 L1064.9,692.8 Q1065.0,700.0 1060.7,705.8 L1060.3,706.2 Q1056.0,712.0 1049.7,715.5 L943.7,775.2 Q928.0,784.0 915.7,770.8 L814.8,662.3 Q808.0,655.0 807.9,645.0 L807.0,503.0 Q807.0,500.0 804.6,501.8 L781.5,518.3 Q775.0,523.0 775.0,531.0 L774.1,760.0 Q774.0,776.0 763.5,788.1 L662.0,905.3 Q645.0,925.0 637.1,900.2 L577.9,714.9 Q577.0,712.0 574.6,713.8 L341.5,893.7 Q336.0,898.0 329.3,896.1 L328.7,895.9 Q322.0,894.0 317.4,888.7 L310.8,881.1 Q303.0,872.0 298.7,860.8 Z"/></clipPath></defs><path d="M191.3,581.2 Q187.0,570.0 197.2,563.6 L263.1,522.4 Q275.0,515.0 288.3,519.3 L366.6,544.3 Q378.0,548.0 384.5,558.1 L466.9,686.3 Q468.0,688.0 468.5,686.1 L525.2,449.5 Q527.0,442.0 530.8,435.3 L531.2,434.7 Q535.0,428.0 541.7,424.2 L780.0,289.5 Q788.0,285.0 797.1,284.0 L798.5,283.9 Q807.0,283.0 815.2,285.4 L815.8,285.6 Q824.0,288.0 826.9,296.0 L880.0,441.2 Q881.0,444.0 883.9,444.7 L1046.5,484.2 Q1062.0,488.0 1062.2,504.0 L1064.9,692.8 Q1065.0,700.0 1060.7,705.8 L1060.3,706.2 Q1056.0,712.0 1049.7,715.5 L943.7,775.2 Q928.0,784.0 915.7,770.8 L814.8,662.3 Q808.0,655.0 807.9,645.0 L807.0,503.0 Q807.0,500.0 804.6,501.8 L781.5,518.3 Q775.0,523.0 775.0,531.0 L774.1,760.0 Q774.0,776.0 763.5,788.1 L662.0,905.3 Q645.0,925.0 637.1,900.2 L577.9,714.9 Q577.0,712.0 574.6,713.8 L341.5,893.7 Q336.0,898.0 329.3,896.1 L328.7,895.9 Q322.0,894.0 317.4,888.7 L310.8,881.1 Q303.0,872.0 298.7,860.8 Z" fill="#e8601a"/><g clip-path="url(#clip)"><polygon points="546,438 807,299 807,500 775,523 737,507" fill="url(#g_dark_tri)" stroke="url(#g_dark_tri)" stroke-width="1.2" stroke-linejoin="round"/><polygon points="527,442 546,438 737,507 527,604 468,688" fill="url(#g_back_left)" stroke="url(#g_back_left)" stroke-width="1.2" stroke-linejoin="round"/><polygon points="527,442 535,428 788,285 807,283 807,299 546,438" fill="url(#g_back_top)" stroke="url(#g_back_top)" stroke-width="1.2" stroke-linejoin="round"/><polygon points="807,283 824,288 881,444 807,426 807,299" fill="url(#g_flap)" stroke="url(#g_flap)" stroke-width="1.2" stroke-linejoin="round"/><polygon points="385,810 468,688 527,604 548,622 577,712 336,898" fill="url(#g_band)" stroke="url(#g_band)" stroke-width="1.2" stroke-linejoin="round"/><polygon points="293,599 378,548 468,688 385,810" fill="url(#g_left_inner)" stroke="url(#g_left_inner)" stroke-width="1.2" stroke-linejoin="round"/><polygon points="187,570 293,599 385,810 336,898 322,894 303,872" fill="url(#g_left_outer)" stroke="url(#g_left_outer)" stroke-width="1.2" stroke-linejoin="round"/><polygon points="187,570 275,515 378,548 293,599" fill="url(#g_cap)" stroke="url(#g_cap)" stroke-width="1.2" stroke-linejoin="round"/><polygon points="548,622 652,647 645,925" fill="url(#g_slab_left)" stroke="url(#g_slab_left)" stroke-width="1.2" stroke-linejoin="round"/><polygon points="652,647 775,523 774,776 645,925" fill="url(#g_slab_right)" stroke="url(#g_slab_right)" stroke-width="1.2" stroke-linejoin="round"/><polygon points="527,604 737,507 775,523 652,647 548,622" fill="url(#g_slab_top)" stroke="url(#g_slab_top)" stroke-width="1.2" stroke-linejoin="round"/><polygon points="807,426 881,444 1062,488 925,567 925,776 928,784 808,655 807,500" fill="url(#g_blk_left)" stroke="url(#g_blk_left)" stroke-width="1.2" stroke-linejoin="round"/><polygon points="925,567 1062,488 1065,700 1056,712 928,784 925,776" fill="url(#g_blk_right)" stroke="url(#g_blk_right)" stroke-width="1.2" stroke-linejoin="round"/><g fill="none" stroke="#ffd7a3" stroke-opacity=".42" stroke-width="2" stroke-linecap="round"><line x1="187" y1="570" x2="293" y2="599"/><line x1="293" y1="599" x2="378" y2="548"/><line x1="293" y1="599" x2="385" y2="810"/><line x1="385" y1="810" x2="468" y2="688"/><line x1="468" y1="688" x2="527" y2="604"/><line x1="527" y1="604" x2="737" y2="507"/><line x1="737" y1="507" x2="775" y2="523"/><line x1="775" y1="523" x2="652" y2="647"/><line x1="652" y1="647" x2="645" y2="925"/><line x1="548" y1="622" x2="652" y2="647"/><line x1="527" y1="442" x2="535" y2="428"/><line x1="535" y1="428" x2="788" y2="285"/><line x1="546" y1="438" x2="737" y2="507"/><line x1="925" y1="567" x2="1062" y2="488"/><line x1="925" y1="567" x2="925" y2="776"/><line x1="807" y1="426" x2="881" y2="444"/><line x1="881" y1="444" x2="1062" y2="488"/></g></g></svg>